# Blender v3.2.2 OBJ File: ''
# www.blender.org
mtllib map.mtl
o map_Cube
v 50.000000 99.956757 -50.000000
v 50.000000 -0.043247 -50.000000
v 50.000000 99.956757 50.000000
v 50.000000 -0.043247 50.000000
v -50.000000 99.956757 -50.000000
v -50.000000 -0.043247 -50.000000
v -50.000000 99.956757 50.000000
v -50.000000 -0.043247 50.000000
v -50.000000 -0.043247 -15.919852
v -50.000000 17.135605 -15.919852
v -50.000000 -0.043247 -24.030573
v -50.000000 17.135605 -24.030573
v -17.320114 -0.043247 -15.919852
v -17.320114 17.135605 -15.919852
v -17.320114 -0.043247 -24.030573
v -17.320114 17.135605 -24.030573
v 29.415161 -0.043243 -4.066112
v 29.415161 17.004559 -4.066112
v 29.415161 -0.043243 -16.474066
v 29.415161 17.004559 -16.474066
v 50.000000 -0.043243 -4.066112
v 50.000000 17.004559 -4.066112
v 50.000000 -0.043243 -16.474066
v 50.000000 17.004559 -16.474066
v 30.923191 17.004562 -6.850380
v 30.923191 26.361122 -6.850380
v 30.923191 17.004562 -13.617760
v 30.923191 26.361122 -13.617760
v 46.757324 17.004562 -6.850380
v 46.757324 26.361122 -6.850380
v 46.757324 17.004562 -13.617760
v 46.757324 26.361122 -13.617760
v -50.000000 -0.043247 -5.220307
v -50.000000 8.766869 -5.220307
v -50.000000 -0.043247 -15.400884
v -50.000000 8.766869 -15.400884
v -36.942780 -0.043247 -5.220307
v -36.942780 8.766869 -5.220307
v -36.942780 -0.043247 -15.400884
v -36.942780 8.766869 -15.400884
v -50.000000 -0.043247 7.992726
v -50.000000 2.043243 7.992726
v -50.000000 -0.043247 -3.088993
v -50.000000 2.043243 -3.088993
v -39.059311 -0.043247 7.992726
v -39.059311 2.043243 7.992726
v -39.059311 -0.043247 -3.088993
v -39.059311 2.043243 -3.088993
v -25.181602 17.135609 -17.607140
v -25.181602 27.200970 -17.607140
v -25.181602 17.135609 -23.075319
v -25.181602 27.200970 -23.075319
v -20.077276 17.135609 -17.607140
v -20.077276 27.200970 -17.607140
v -20.077276 17.135609 -23.075319
v -20.077276 27.200970 -23.075319
v 29.474567 -0.043240 -21.923065
v 29.474567 11.719242 -21.923065
v 29.474567 -0.043240 -50.000000
v 29.474567 11.719242 -50.000000
v 37.738556 -0.043240 -21.923065
v 37.738556 11.719242 -21.923065
v 37.738556 -0.043240 -50.000000
v 37.738556 11.719242 -50.000000
v -4.042132 -0.043243 29.599178
v -4.042132 18.267071 29.599178
v 50.000000 18.267071 33.493729
v 50.000000 -0.043243 33.493729
v 50.000000 -0.043243 29.599178
v 50.000000 18.267071 29.599178
v -4.042132 18.267071 33.493729
v -4.042132 -0.043243 33.493729
v 1.943246 13.062408 29.599178
v 1.872571 9.271374 29.599178
v 6.081776 9.399837 29.599178
v 5.941175 13.169434 29.599178
v 1.943246 13.062408 33.493729
v 1.872571 9.271374 33.493729
v 6.081776 9.399837 33.493729
v 5.941175 13.169434 33.493729
v 2.568027 -0.043243 39.251919
v 2.568027 6.119415 39.251919
v 2.568027 -0.043243 33.493732
v 2.568027 6.119415 33.493732
v 8.766127 -0.043243 39.251919
v 8.766127 6.119415 39.251919
v 8.766127 -0.043243 33.493732
v 8.766127 6.119415 33.493732
vt 0.875000 0.500000
vt 0.625000 0.750000
vt 0.625000 0.500000
vt 0.375000 1.000000
vt 0.375000 0.750000
vt 0.625000 0.000000
vt 0.375000 0.250000
vt 0.375000 0.000000
vt 0.375000 0.500000
vt 0.125000 0.750000
vt 0.125000 0.500000
vt 0.625000 0.250000
vt 0.625000 0.000000
vt 0.375000 0.250000
vt 0.375000 0.000000
vt 0.625000 0.250000
vt 0.375000 0.500000
vt 0.625000 0.500000
vt 0.375000 0.750000
vt 0.625000 0.750000
vt 0.375000 1.000000
vt 0.125000 0.750000
vt 0.125000 0.500000
vt 0.875000 0.500000
vt 0.625000 0.000000
vt 0.375000 0.250000
vt 0.375000 0.000000
vt 0.625000 0.250000
vt 0.375000 0.500000
vt 0.625000 0.500000
vt 0.375000 0.750000
vt 0.625000 0.750000
vt 0.375000 1.000000
vt 0.125000 0.750000
vt 0.125000 0.500000
vt 0.875000 0.500000
vt 0.625000 0.000000
vt 0.375000 0.250000
vt 0.375000 0.000000
vt 0.625000 0.250000
vt 0.375000 0.500000
vt 0.625000 0.500000
vt 0.375000 0.750000
vt 0.625000 0.750000
vt 0.375000 1.000000
vt 0.125000 0.750000
vt 0.125000 0.500000
vt 0.875000 0.500000
vt 0.625000 0.000000
vt 0.375000 0.250000
vt 0.375000 0.000000
vt 0.625000 0.250000
vt 0.375000 0.500000
vt 0.625000 0.500000
vt 0.375000 0.750000
vt 0.625000 0.750000
vt 0.375000 1.000000
vt 0.125000 0.750000
vt 0.125000 0.500000
vt 0.875000 0.500000
vt 0.625000 0.000000
vt 0.375000 0.250000
vt 0.375000 0.000000
vt 0.625000 0.250000
vt 0.375000 0.500000
vt 0.625000 0.500000
vt 0.375000 0.750000
vt 0.625000 0.750000
vt 0.375000 1.000000
vt 0.125000 0.750000
vt 0.125000 0.500000
vt 0.875000 0.500000
vt 0.625000 0.000000
vt 0.375000 0.250000
vt 0.375000 0.000000
vt 0.625000 0.250000
vt 0.375000 0.500000
vt 0.625000 0.500000
vt 0.375000 0.750000
vt 0.625000 0.750000
vt 0.375000 1.000000
vt 0.125000 0.750000
vt 0.125000 0.500000
vt 0.875000 0.500000
vt 0.625000 0.000000
vt 0.375000 0.250000
vt 0.375000 0.000000
vt 0.625000 0.250000
vt 0.375000 0.500000
vt 0.625000 0.500000
vt 0.375000 0.750000
vt 0.625000 0.750000
vt 0.375000 1.000000
vt 0.125000 0.750000
vt 0.125000 0.500000
vt 0.875000 0.500000
vt 0.553938 0.972311
vt 0.502177 0.972638
vt 0.502177 0.972638
vt 0.375000 1.000000
vt 0.625000 1.000000
vt 0.625000 1.000000
vt 0.503931 0.953167
vt 0.375000 1.000000
vt 0.503931 0.953167
vt 0.555399 0.953817
vt 0.625000 0.750000
vt 0.555399 0.953817
vt 0.375000 0.750000
vt 0.553938 0.972311
vt 0.625000 0.750000
vt 0.375000 0.750000
vt 0.625000 0.000000
vt 0.375000 0.250000
vt 0.375000 0.000000
vt 0.625000 0.250000
vt 0.375000 0.500000
vt 0.625000 0.500000
vt 0.375000 0.750000
vt 0.625000 0.750000
vt 0.375000 1.000000
vt 0.125000 0.750000
vt 0.125000 0.500000
vt 0.875000 0.500000
vt 0.875000 0.750000
vt 0.625000 1.000000
vt 0.625000 1.000000
vt 0.875000 0.750000
vt 0.625000 1.000000
vt 0.875000 0.750000
vt 0.625000 1.000000
vt 0.875000 0.750000
vt 0.625000 1.000000
vt 0.875000 0.750000
vt 0.625000 1.000000
vt 0.875000 0.750000
vt 0.625000 1.000000
vt 0.875000 0.750000
vt 0.625000 1.000000
vt 0.875000 0.750000
vt 0.625000 1.000000
vt 0.875000 0.750000
vn 0.0000 1.0000 0.0000
vn 0.0000 0.0000 1.0000
vn -1.0000 0.0000 0.0000
vn 0.0000 -1.0000 0.0000
vn 1.0000 0.0000 0.0000
vn 0.0000 0.0000 -1.0000
vn 0.9998 -0.0186 0.0000
vn -0.9993 -0.0373 0.0000
vn 0.0268 -0.9996 0.0000
vn -0.0305 0.9995 0.0000
usemtl Material
s off
f 5/1/1 3/2/1 1/3/1
f 3/2/2 8/4/2 4/5/2
f 7/6/3 6/7/3 8/8/3
f 2/9/4 8/10/4 6/11/4
f 1/3/5 4/5/5 2/9/5
f 5/12/6 2/9/6 6/7/6
f 10/13/3 11/14/3 9/15/3
f 12/16/6 15/17/6 11/14/6
f 16/18/5 13/19/5 15/17/5
f 14/20/2 9/21/2 13/19/2
f 15/17/4 9/22/4 11/23/4
f 12/24/1 14/20/1 16/18/1
f 18/25/3 19/26/3 17/27/3
f 20/28/6 23/29/6 19/26/6
f 24/30/5 21/31/5 23/29/5
f 22/32/2 17/33/2 21/31/2
f 23/29/4 17/34/4 19/35/4
f 20/36/1 22/32/1 24/30/1
f 26/37/3 27/38/3 25/39/3
f 28/40/6 31/41/6 27/38/6
f 32/42/5 29/43/5 31/41/5
f 30/44/2 25/45/2 29/43/2
f 31/41/4 25/46/4 27/47/4
f 28/48/1 30/44/1 32/42/1
f 34/49/3 35/50/3 33/51/3
f 36/52/6 39/53/6 35/50/6
f 40/54/5 37/55/5 39/53/5
f 38/56/2 33/57/2 37/55/2
f 39/53/4 33/58/4 35/59/4
f 36/60/1 38/56/1 40/54/1
f 42/61/3 43/62/3 41/63/3
f 44/64/6 47/65/6 43/62/6
f 48/66/5 45/67/5 47/65/5
f 46/68/2 41/69/2 45/67/2
f 47/65/4 41/70/4 43/71/4
f 44/72/1 46/68/1 48/66/1
f 50/73/3 51/74/3 49/75/3
f 52/76/6 55/77/6 51/74/6
f 56/78/5 53/79/5 55/77/5
f 54/80/2 49/81/2 53/79/2
f 55/77/4 49/82/4 51/83/4
f 52/84/1 54/80/1 56/78/1
f 58/85/3 59/86/3 57/87/3
f 60/88/6 63/89/6 59/86/6
f 64/90/5 61/91/5 63/89/5
f 62/92/2 57/93/2 61/91/2
f 63/89/4 57/94/4 59/95/4
f 60/96/1 62/92/1 64/90/1
f 73/97/7 78/98/7 74/99/7
f 65/100/3 71/101/3 66/102/3
f 79/103/2 78/98/2 72/104/2
f 65/100/6 74/99/6 75/105/6
f 71/101/2 80/106/2 67/107/2
f 75/105/8 80/106/8 76/108/8
f 76/108/6 73/97/6 66/102/6
f 69/109/4 72/104/4 65/100/4
f 76/108/9 77/110/9 73/97/9
f 74/99/10 79/103/10 75/105/10
f 66/102/1 67/107/1 70/111/1
f 70/111/5 68/112/5 69/109/5
f 82/113/3 83/114/3 81/115/3
f 84/116/6 87/117/6 83/114/6
f 88/118/5 85/119/5 87/117/5
f 86/120/2 81/121/2 85/119/2
f 87/117/4 81/122/4 83/123/4
f 84/124/1 86/120/1 88/118/1
f 5/1/1 7/125/1 3/2/1
f 3/2/2 7/126/2 8/4/2
f 7/6/3 5/12/3 6/7/3
f 2/9/4 4/5/4 8/10/4
f 1/3/5 3/2/5 4/5/5
f 5/12/6 1/3/6 2/9/6
f 10/13/3 12/16/3 11/14/3
f 12/16/6 16/18/6 15/17/6
f 16/18/5 14/20/5 13/19/5
f 14/20/2 10/127/2 9/21/2
f 15/17/4 13/19/4 9/22/4
f 12/24/1 10/128/1 14/20/1
f 18/25/3 20/28/3 19/26/3
f 20/28/6 24/30/6 23/29/6
f 24/30/5 22/32/5 21/31/5
f 22/32/2 18/129/2 17/33/2
f 23/29/4 21/31/4 17/34/4
f 20/36/1 18/130/1 22/32/1
f 26/37/3 28/40/3 27/38/3
f 28/40/6 32/42/6 31/41/6
f 32/42/5 30/44/5 29/43/5
f 30/44/2 26/131/2 25/45/2
f 31/41/4 29/43/4 25/46/4
f 28/48/1 26/132/1 30/44/1
f 34/49/3 36/52/3 35/50/3
f 36/52/6 40/54/6 39/53/6
f 40/54/5 38/56/5 37/55/5
f 38/56/2 34/133/2 33/57/2
f 39/53/4 37/55/4 33/58/4
f 36/60/1 34/134/1 38/56/1
f 42/61/3 44/64/3 43/62/3
f 44/64/6 48/66/6 47/65/6
f 48/66/5 46/68/5 45/67/5
f 46/68/2 42/135/2 41/69/2
f 47/65/4 45/67/4 41/70/4
f 44/72/1 42/136/1 46/68/1
f 50/73/3 52/76/3 51/74/3
f 52/76/6 56/78/6 55/77/6
f 56/78/5 54/80/5 53/79/5
f 54/80/2 50/137/2 49/81/2
f 55/77/4 53/79/4 49/82/4
f 52/84/1 50/138/1 54/80/1
f 58/85/3 60/88/3 59/86/3
f 60/88/6 64/90/6 63/89/6
f 64/90/5 62/92/5 61/91/5
f 62/92/2 58/139/2 57/93/2
f 63/89/4 61/91/4 57/94/4
f 60/96/1 58/140/1 62/92/1
f 73/97/7 77/110/7 78/98/7
f 65/100/3 72/104/3 71/101/3
f 72/104/2 68/112/2 79/103/2
f 68/112/2 67/107/2 79/103/2
f 78/98/2 71/101/2 72/104/2
f 70/111/6 69/109/6 75/105/6
f 69/109/6 65/100/6 75/105/6
f 65/100/6 66/102/6 74/99/6
f 71/101/2 78/98/2 77/110/2
f 80/106/2 79/103/2 67/107/2
f 71/101/2 77/110/2 80/106/2
f 75/105/8 79/103/8 80/106/8
f 70/111/6 75/105/6 76/108/6
f 73/97/6 74/99/6 66/102/6
f 70/111/6 76/108/6 66/102/6
f 69/109/4 68/112/4 72/104/4
f 76/108/9 80/106/9 77/110/9
f 74/99/10 78/98/10 79/103/10
f 66/102/1 71/101/1 67/107/1
f 70/111/5 67/107/5 68/112/5
f 82/113/3 84/116/3 83/114/3
f 84/116/6 88/118/6 87/117/6
f 88/118/5 86/120/5 85/119/5
f 86/120/2 82/141/2 81/121/2
f 87/117/4 85/119/4 81/122/4
f 84/124/1 82/142/1 86/120/1
